<svg width="120" height="56" viewBox="0 0 120 56" fill="none" xmlns="http://www.w3.org/2000/svg">
<path d="M51.9577 17.4065L42.6623 39.6521H36.5977L32.0234 21.8991C31.7457 20.8056 31.5042 20.405 30.6596 19.9444C29.2807 19.194 27.0035 18.49 25 18.053L25.1361 17.4065H34.8982C36.1425 17.4065 37.2611 18.2374 37.5436 19.6747L39.9595 32.5471L45.9301 17.4062H51.9577V17.4065ZM75.7196 32.3891C75.744 26.5178 67.6257 26.1944 67.6815 23.5716C67.6989 22.7734 68.4566 21.9247 70.1151 21.7081C70.9371 21.6001 73.2021 21.5178 75.771 22.7036L76.7787 17.9863C75.3983 17.4837 73.6222 17 71.4123 17C65.7416 17 61.7508 20.0237 61.7172 24.3535C61.6806 27.556 64.5657 29.3431 66.7393 30.4073C68.9754 31.497 69.7257 32.1973 69.7172 33.1721C69.7013 34.6643 67.9337 35.3231 66.2818 35.349C63.3982 35.3935 61.7249 34.5664 60.3911 33.9444L59.3512 38.8179C60.6917 39.4347 63.166 39.9729 65.7312 40C71.7584 40 75.7011 37.0137 75.7196 32.3891ZM90.6939 39.6521H96L91.3684 17.4065H86.4709C85.3697 17.4065 84.4407 18.0497 84.0295 19.0386L75.4205 39.6521H81.4447L82.6406 36.3294H90.0013L90.6939 39.6521ZM84.2925 31.77L87.3122 23.4177L89.0502 31.77H84.2925ZM60.1548 17.4065L55.4108 39.6521H49.6739L54.4197 17.4065H60.1548Z" fill="white"/>
</svg>
