<svg width="140" height="56" viewBox="0 0 140 56" fill="none" xmlns="http://www.w3.org/2000/svg">
<path fill-rule="evenodd" clip-rule="evenodd" d="M59.3158 23.8262C57.463 23.8262 56.1754 24.7424 55.4402 25.4716V17.5675C55.4402 17.1836 55.0702 16.9099 54.7076 17.0276L50.1372 18.4963V19.786H51.5137C51.8636 19.786 52.1475 20.0725 52.1475 20.4257V36.8581C52.1475 36.8581 52.9154 38.9972 57.3337 38.9972C62.7403 38.9972 64.9128 34.5116 64.9128 30.9371C64.9153 28.9796 63.9241 23.8262 59.3158 23.8262ZM57.9825 37.1294C56.5681 37.1294 55.828 36.6536 55.4402 36.1492V28.2607C55.8432 27.4777 56.6061 26.6333 58.0205 26.6333C60.6491 26.6333 61.4856 30.0544 61.4856 32.0911C61.4856 34.128 60.9915 37.1294 57.9825 37.1294Z" fill="white"/>
<path d="M125.979 36.1394C126.625 36.9735 127.614 37.4596 128.66 37.4596H129V38.5446H121.839V37.4596H123.246L118.747 31.6052V36.3747C118.747 36.9735 119.228 37.4596 119.821 37.4596H120.988V38.5446H106.787V37.4596H107.518C108.182 37.4596 108.722 36.9145 108.722 36.2442V28.2864C108.722 28.2864 108.706 26.2369 106.787 26.2369C105.568 26.2369 104.58 27.112 104.022 27.7491V36.2442C104.022 36.9145 104.562 37.4596 105.226 37.4596H105.956V38.5446H99.0083V37.4596H99.7382C100.402 37.4596 100.942 36.9145 100.942 36.2442V27.0915C100.942 26.6744 100.608 26.3367 100.195 26.3367H99.9917C99.5356 26.3367 99.0083 26.5414 99.0083 26.5414V25.4386C100.836 24.9727 101.653 24.5638 102.388 24.1956C102.561 24.1088 102.73 24.0242 102.907 23.9417C103.426 23.6985 104.02 24.0824 104.02 24.6606V25.8787C104.679 25.285 106.344 23.9544 108.04 23.9544C111.796 23.9544 111.796 28.2864 111.796 28.2864V36.2442C111.796 36.9145 112.336 37.4596 113 37.4596H114.59C115.183 37.4596 115.664 36.9735 115.664 36.3747V20.2263C115.664 19.909 115.408 19.6506 115.094 19.6506H114.866C114.41 19.6506 113.426 19.8553 113.426 19.8553V18.7524C115.571 18.1178 116.985 17.5472 117.811 17.1711C118.247 16.9715 118.742 17.294 118.742 17.7775V29.7475L122.947 25.8991C123.162 25.7047 123.026 25.3464 122.737 25.3464H121.5V24.2615H128.232V25.3464H127.575C126.541 25.3464 125.54 25.7149 124.747 26.3827C122.818 28.0075 121.342 29.4635 121.041 29.7654L125.979 36.1394Z" fill="white"/>
<path fill-rule="evenodd" clip-rule="evenodd" d="M79.2138 27.6337C79.2138 27.6337 82.5472 27.058 82.5472 23.0202C82.5472 17.9846 76.1874 17.9846 76.1874 17.9846L65.6755 17.7798V19.0464L67.1179 19.0746C67.8959 19.0899 68.517 19.7296 68.517 20.5152V35.8807C68.517 36.6712 67.886 37.3135 67.1051 37.3213L65.678 37.3339V38.6007L76.1899 38.4982C76.1899 38.4982 83.5029 38.5904 83.5029 32.6695C83.5002 28.6725 79.2138 27.6337 79.2138 27.6337ZM73.711 19.5608C78.1291 19.5608 78.9655 21.5975 78.9655 23.3657C78.9655 26.0959 76.5649 26.9786 75.4448 26.9786H72.2254V20.2132C72.2254 20.2132 71.9262 19.5608 73.711 19.5608ZM74.2836 36.8606C71.9999 36.8606 72.2279 36.052 72.2279 36.052V28.5549C72.2279 28.5549 73.0314 28.6009 73.6728 28.6316L73.708 28.6332L73.8175 28.6382C75.6084 28.7178 79.5357 28.8926 79.5357 32.746C79.5357 36.7072 75.9972 36.8606 74.2836 36.8606Z" fill="white"/>
<path d="M99.0054 35.5918L99.0029 35.5947V35.5918H99.0054Z" fill="white"/>
<path fill-rule="evenodd" clip-rule="evenodd" d="M99.0029 35.5947C98.9538 35.651 98.1879 36.5156 97.477 36.5156C96.9851 36.5156 96.8686 36.0909 96.8456 35.8092V28.133C96.8456 28.133 96.942 23.9545 92.0677 23.9545C88.6355 23.9545 87.4694 25.7764 87.0767 26.8536C86.9474 27.0966 86.8787 27.373 86.884 27.6698C86.9017 28.5321 87.6064 29.2537 88.4606 29.2844C89.3934 29.3177 90.159 28.5654 90.159 27.6314C90.159 27.4677 90.136 27.3116 90.0903 27.1632C89.9004 26.5209 90.131 25.8147 90.714 25.4974C91.0004 25.3413 91.3754 25.2364 91.8648 25.2364C93.8699 25.2364 93.7683 26.979 93.7683 26.979V29.287C91.8319 29.7834 86.3033 31.5336 86.3033 35.3616C86.3033 38.3859 88.9447 38.8209 89.8318 38.8209C91.9636 38.8209 93.7683 36.8609 93.7683 36.8609C93.7683 36.8609 94.1741 38.8209 96.0269 38.8209C97.88 38.8209 99.0029 37.1297 99.0029 37.1297V35.5947ZM93.7683 35.1568C93.7683 35.1568 92.8787 36.4898 91.2285 36.4898C89.5783 36.4898 89.3757 34.9802 89.3757 34.3892C89.3757 31.6206 93.7683 30.3898 93.7683 30.3898V35.1568Z" fill="white"/>
<path d="M39.0553 19.2126H39.6407V17.7771H32.8096V19.2126H33.8309C34.6522 19.2126 35.2251 20.0365 34.9464 20.817L31.1162 31.4742L26.8096 20.1901C26.6297 19.7192 26.9743 19.2126 27.4736 19.2126H29.1036V17.7771H20.1886V19.2126H21.2888C21.8565 19.2126 22.3661 19.5555 22.5842 20.0826C22.9667 21.014 23.5269 22.3778 24.186 24.0154L21.4103 31.3079L17.2001 20.2643C17.0074 19.7576 17.3775 19.2126 17.915 19.2126H19.1495V17.7771H11V19.2126H11.3853C12.3485 19.2126 13.2104 19.8242 13.5348 20.7402L20.0111 38.9997H21.0784L25.3673 26.9683C26.8553 30.7169 28.5711 35.164 29.9146 38.9997H30.8552C30.8552 38.9997 34.0515 29.023 37.2808 20.4459C37.5623 19.7039 38.2695 19.2126 39.0553 19.2126Z" fill="white"/>
<path fill-rule="evenodd" clip-rule="evenodd" d="M40.5296 30.2233C40.7197 33.5035 41.9794 36.0137 44.8439 36.0137C47.9666 36.0137 49.1859 32.6312 49.1859 32.6312L50.4812 33.2836C50.4812 33.2836 48.7297 39 43.6194 39C39.1202 39 37.5333 35.4357 37.5333 31.7458C37.5333 27.7874 39.6425 23.8264 44.0453 23.8264C49.949 23.8264 49.7057 30.2233 49.7057 30.2233H40.5296ZM45.7714 28.404C45.6244 27.4394 45.1276 25.8657 43.4345 25.8657C42.8895 25.8657 40.968 26.0525 40.5727 28.404H45.7714Z" fill="white"/>
</svg>
