<svg width="829" height="880" viewBox="0 0 829 880" fill="none" xmlns="http://www.w3.org/2000/svg">
    <mask id="mask0" mask-type="alpha" maskUnits="userSpaceOnUse" x="0" y="0" width="829" height="880">
        <rect width="829" height="880" fill="#040404" />
    </mask>
    <g mask="url(#mask0)">
        <circle cx="98" cy="414" r="503" stroke="white" stroke-width="2" />
        <path d="M-225 414C-225 235.612 -80.388 91 98 91C228.676 91 341.227 168.6 392.085 280.232" stroke="white" stroke-width="2" />
        <path d="M156 173C156 187.912 143.912 200 129 200C114.088 200 102 187.912 102 173C102 158.088 114.088 146 129 146C143.912 146 156 158.088 156 173Z" fill="white" stroke="#F3F3F3" stroke-width="2" />
        <path fill-rule="evenodd" clip-rule="evenodd" d="M141.359 161.716L146.23 159.211V162.214L141.324 164.737L138.951 165.958L117.828 176.823C117.829 176.824 117.829 176.826 117.83 176.827L116.654 177.432L115.458 178.047C115.458 178.046 115.457 178.044 115.457 178.043L111.769 179.939V176.936L113.022 176.291C113.975 175.801 114.542 174.781 114.461 173.704C114.434 173.333 114.42 172.96 114.42 172.584C114.42 170.597 114.805 168.67 115.566 166.854C116.3 165.102 117.352 163.528 118.69 162.177C120.029 160.825 121.588 159.764 123.324 159.023C125.122 158.255 127.032 157.866 129 157.866C130.967 157.866 132.877 158.255 134.675 159.023C135.703 159.462 136.669 160.014 137.564 160.671L137.21 160.853L134.834 162.075C133.046 161.06 131.018 160.526 128.907 160.542C125.771 160.566 122.782 161.83 120.565 164.069C118.312 166.343 117.071 169.367 117.071 172.584C117.071 173.114 117.105 173.64 117.172 174.157L137.21 163.85L141.359 161.716ZM146.23 165.217V168.221L144.977 168.866C144.023 169.356 143.456 170.377 143.537 171.453C143.565 171.828 143.579 172.205 143.579 172.584C143.579 174.57 143.194 176.498 142.433 178.313C141.699 180.066 140.648 181.64 139.309 182.991C137.971 184.342 136.411 185.403 134.675 186.145C132.877 186.912 130.967 187.302 129 187.302C127.032 187.302 125.123 186.912 123.324 186.145C122.292 185.704 121.324 185.149 120.426 184.489L123.001 183.165L123.154 183.086C124.942 184.105 126.973 184.64 129.085 184.626C132.223 184.603 135.216 183.339 137.435 181.099C139.688 178.824 140.929 175.8 140.929 172.584C140.929 172.05 140.894 171.521 140.826 171L120.768 181.317L116.619 183.451L111.769 185.946V182.943L116.654 180.43L119.027 179.209L146.23 165.217Z" fill="black" />
        <path d="M-303 414C-303 635.466 -123.466 815 98 815C269.09 815 415.155 707.853 472.752 557" stroke="white" stroke-width="2" />
        <circle cx="98" cy="414.756" r="231" transform="rotate(-15 98 414.756)" fill="url(#paint0_radial)" stroke="url(#paint1_linear)" stroke-width="4" />
        <path d="M390 320.5C412.368 320.5 430.5 302.368 430.5 280C430.5 257.632 412.368 239.5 390 239.5C367.632 239.5 349.5 257.632 349.5 280C349.5 302.368 367.632 320.5 390 320.5Z" fill="#627EEA" stroke="black" stroke-width="3" />
        <path d="M389.996 250.75V271.474L407.051 279.301L389.996 250.75Z" fill="white" fill-opacity="0.602" />
        <path d="M389.995 250.75L372.938 279.301L389.995 271.474V250.75Z" fill="white" />
        <path d="M389.996 292.731V306.812L407.063 282.563L389.996 292.731Z" fill="white" fill-opacity="0.602" />
        <path d="M389.995 306.812V292.729L372.938 282.563L389.995 306.812Z" fill="white" />
        <path d="M389.996 289.472L407.051 279.301L389.996 271.479V289.472Z" fill="white" fill-opacity="0.2" />
        <path d="M372.938 279.301L389.995 289.472V271.479L372.938 279.301Z" fill="white" fill-opacity="0.602" />
        <g filter="url(#filter0_d)">
            <path d="M152 690C169.673 690 184 675.673 184 658C184 640.327 169.673 626 152 626C134.327 626 120 640.327 120 658C120 675.673 134.327 690 152 690Z" fill="#00D395" />
            <path fill-rule="evenodd" clip-rule="evenodd" d="M138.534 668.754C137.578 668.169 136.993 667.127 136.993 666.008V659.762C136.993 659.523 137.057 659.292 137.176 659.087C137.548 658.447 138.372 658.229 139.012 658.605L153.111 666.824C153.935 667.306 154.443 668.186 154.443 669.142V675.615C154.443 675.91 154.362 676.205 154.208 676.456C153.743 677.216 152.752 677.456 151.992 676.99L138.534 668.754ZM159.55 656.893C160.374 657.375 160.882 658.255 160.882 659.211V672.345C160.882 672.733 160.673 673.092 160.335 673.28L157.248 675.018C157.21 675.039 157.167 675.056 157.125 675.069V667.776C157.125 666.833 156.629 665.957 155.818 665.471L143.436 658.063V649.831C143.436 649.592 143.5 649.361 143.619 649.156C143.991 648.516 144.815 648.298 145.455 648.674L159.55 656.893ZM165.72 647.192C166.548 647.67 167.056 648.558 167.056 649.515V668.698C167.056 669.091 166.838 669.454 166.492 669.642L163.568 671.222V657.866C163.568 656.923 163.072 656.052 162.265 655.565L149.61 647.973V640.164C149.61 639.925 149.674 639.694 149.789 639.489C150.161 638.849 150.985 638.631 151.625 639.003L165.72 647.192Z" fill="white" />
        </g>
        <path d="M312.5 677C317.148 677 321.691 675.622 325.556 673.04C329.42 670.457 332.433 666.787 334.211 662.493C335.99 658.199 336.455 653.474 335.548 648.915C334.642 644.357 332.404 640.17 329.117 636.883C325.83 633.596 321.643 631.358 317.085 630.452C312.526 629.545 307.801 630.01 303.507 631.789C299.213 633.568 295.543 636.58 292.96 640.444C290.378 644.309 289 648.852 289 653.5C289 659.733 291.476 665.71 295.883 670.117C300.29 674.524 306.267 677 312.5 677Z" fill="#2A5ADA" />
        <path d="M312.5 639.914L310.013 641.344L303.237 645.261L300.75 646.691V660.243L303.237 661.673L310.075 665.59L312.562 667.02L315.049 665.59L321.763 661.673L324.25 660.243V646.691L321.763 645.261L314.987 641.344L312.5 639.914V639.914ZM305.724 657.384V649.55L312.5 645.634L319.276 649.55V657.384L312.5 661.3L305.724 657.384Z" fill="white" />
        <path d="M406.5 142C421.136 142 433 130.136 433 115.5C433 100.864 421.136 89 406.5 89C391.864 89 380 100.864 380 115.5C380 130.136 391.864 142 406.5 142Z" fill="#FF007A" />
        <path fill-rule="evenodd" clip-rule="evenodd" d="M390.707 98.1972C394.58 102.751 397.553 105.302 398.976 106.523C399.458 106.937 399.762 107.198 399.863 107.332C400.186 107.766 400.061 108.176 399.516 108.465C399.193 108.658 398.573 108.827 398.25 108.827C397.878 108.827 397.754 108.682 397.754 108.682C397.729 108.66 397.705 108.642 397.681 108.623L397.681 108.623C397.495 108.476 397.308 108.327 396.34 106.682C394.826 104.416 393.561 102.536 393.536 102.512C393.527 102.503 393.519 102.495 393.517 102.497C393.501 102.507 393.789 103.003 396.191 107.139L396.191 107.14C396.525 107.922 396.376 108.312 396.3 108.512C396.28 108.564 396.265 108.604 396.265 108.634C396.265 108.923 396.191 109.068 395.819 109.453C395.223 110.104 394.95 110.827 394.752 112.346C394.528 114.057 393.908 115.262 392.221 117.311C391.203 118.516 391.054 118.733 390.806 119.215C390.484 119.818 390.385 120.18 390.36 120.951C390.31 121.77 390.385 122.301 390.657 123.072C390.881 123.747 391.129 124.205 391.724 125.097C392.245 125.868 392.543 126.446 392.543 126.687C392.543 126.856 392.568 126.856 393.387 126.687C395.322 126.278 396.885 125.53 397.754 124.615C398.3 124.06 398.424 123.747 398.424 122.976C398.424 122.469 398.399 122.373 398.275 122.084C398.052 121.602 397.63 121.216 396.712 120.613C395.496 119.818 395 119.167 394.851 118.299C394.727 117.576 394.876 117.07 395.546 115.72C396.216 114.322 396.389 113.72 396.513 112.322C396.588 111.406 396.687 111.044 396.96 110.755C397.233 110.466 397.506 110.345 398.201 110.273C399.342 110.128 400.061 109.839 400.657 109.309C401.178 108.851 401.401 108.417 401.426 107.742L401.451 107.236L401.153 106.899C400.111 105.717 390.012 97.2812 389.938 97.2812C389.913 97.2812 390.26 97.691 390.707 98.1972ZM393.114 121.867C393.362 121.457 393.213 120.951 392.841 120.686C392.469 120.445 391.898 120.565 391.898 120.879C391.898 120.975 391.948 121.047 392.072 121.095C392.27 121.192 392.295 121.312 392.121 121.553C391.948 121.794 391.973 122.011 392.171 122.156C392.469 122.373 392.891 122.252 393.114 121.867ZM400.235 99.8121L400.175 99.8029C399.762 99.7397 399.748 99.7376 399.962 99.6916C400.384 99.6192 401.376 99.7157 402.071 99.8603C403.659 100.222 405.123 101.162 406.686 102.825L407.083 103.307L407.679 103.211C410.16 102.825 412.691 103.138 414.8 104.078C415.371 104.344 416.289 104.85 416.413 104.994C416.438 105.043 416.512 105.308 416.562 105.597C416.71 106.609 416.636 107.381 416.313 107.959C416.14 108.272 416.14 108.369 416.239 108.634C416.338 108.851 416.586 108.995 416.859 108.995C417.38 108.995 417.951 108.176 418.224 107.043L418.323 106.585L418.522 106.802C419.663 108.031 420.532 109.719 420.705 110.924L420.755 111.237L420.556 110.948C420.234 110.466 419.911 110.128 419.49 109.863C418.72 109.381 417.926 109.212 415.792 109.116C413.882 109.02 412.79 108.851 411.723 108.513C409.887 107.935 408.944 107.164 406.785 104.416C405.818 103.187 405.222 102.512 404.627 101.957C403.262 100.728 401.947 100.077 400.235 99.8121ZM416.859 102.56C416.909 101.74 417.033 101.186 417.256 100.704C417.283 100.651 417.309 100.6 417.332 100.554L417.332 100.554C417.393 100.431 417.437 100.342 417.455 100.342C417.48 100.342 417.43 100.487 417.356 100.656C417.182 101.138 417.157 101.789 417.281 102.56C417.43 103.524 417.504 103.669 418.571 104.705C419.068 105.187 419.638 105.814 419.862 106.079L420.234 106.561L419.862 106.224C419.39 105.79 418.323 104.97 418.075 104.85C417.926 104.777 417.901 104.777 417.802 104.874C417.708 104.966 417.703 105.079 417.682 105.632L417.678 105.717C417.653 106.682 417.529 107.284 417.207 107.911C417.033 108.248 417.008 108.176 417.157 107.79C417.281 107.501 417.281 107.381 417.281 106.465C417.281 104.585 417.058 104.151 415.693 103.379C415.346 103.187 414.8 102.897 414.452 102.753C414.105 102.608 413.832 102.463 413.832 102.463C413.882 102.415 415.197 102.801 415.718 102.994L415.797 103.023C416.52 103.286 416.639 103.33 416.735 103.283C416.785 103.259 416.835 103.09 416.859 102.56ZM399.738 101.114C399.614 102.56 400.21 104.488 401.153 105.742C401.872 106.73 403.014 107.477 403.857 107.549C404.403 107.598 404.577 107.453 404.329 107.091C403.981 106.609 403.56 105.838 403.46 105.501C403.386 105.308 403.237 104.729 403.113 104.199C402.716 102.439 402.319 101.74 401.426 101.21C401.103 101.041 400.408 100.776 400.011 100.704L399.788 100.656L399.738 101.114ZM415.718 115.118C411.276 113.406 409.713 111.912 409.713 109.381C409.713 109.02 409.738 108.706 409.738 108.706C409.763 108.706 409.936 108.827 410.11 108.971C411.003 109.67 412.021 109.96 414.8 110.345C416.437 110.586 417.355 110.755 418.199 111.044C420.904 111.912 422.566 113.672 422.963 116.058C423.087 116.757 423.013 118.058 422.814 118.733C422.665 119.264 422.219 120.252 422.095 120.3C422.07 120.3 422.02 120.18 422.02 120.011C421.97 119.119 421.499 118.227 420.705 117.576C419.861 116.853 418.646 116.275 415.718 115.118ZM412.393 114.925C412.443 115.118 412.542 115.528 412.592 115.841C412.964 117.866 411.847 119.529 409.689 120.155C409.465 120.228 408.572 120.396 407.704 120.541C405.942 120.806 405.148 121.023 404.354 121.385C403.808 121.65 403.113 122.035 403.163 122.084C403.163 122.084 403.287 122.06 403.436 122.011C404.428 121.674 405.545 121.505 407.232 121.409C407.902 121.385 408.671 121.312 408.919 121.288C410.433 121.12 411.475 120.662 412.269 119.866C412.716 119.432 412.989 119.023 413.212 118.444C413.336 118.083 413.361 117.938 413.361 117.287C413.361 116.612 413.336 116.492 413.187 116.082C413.014 115.552 412.765 115.142 412.468 114.829L412.269 114.612L412.393 114.925ZM414.626 119.312C414.03 118.083 413.906 116.901 414.229 115.817C414.254 115.696 414.328 115.6 414.353 115.6C414.378 115.6 414.527 115.672 414.651 115.769C414.924 115.937 415.47 116.251 416.909 116.998C418.72 117.938 419.737 118.685 420.457 119.529C421.077 120.276 421.449 121.095 421.623 122.132C421.722 122.71 421.673 124.108 421.524 124.687C421.028 126.519 419.911 127.965 418.298 128.809C418.05 128.929 417.852 129.025 417.827 129.025C417.802 129.025 417.901 128.809 418.025 128.568C418.571 127.483 418.621 126.398 418.224 125.217C417.976 124.494 417.455 123.602 416.437 122.108C415.221 120.396 414.924 119.938 414.626 119.312ZM403.56 123.313C401.699 123.602 399.639 124.542 398.002 125.892L397.555 126.278L397.977 126.35C400.21 126.687 400.806 127.001 402.369 128.543C403.262 129.435 403.56 129.628 404.304 129.821C405.396 130.086 406.463 129.604 406.835 128.664C407.009 128.23 406.984 127.531 406.785 127.194C406.339 126.374 405.049 126.109 404.403 126.712C403.858 127.218 404.031 127.989 404.676 128.11L404.694 128.112L404.694 128.112C404.746 128.121 404.772 128.125 404.774 128.12C404.776 128.114 404.753 128.099 404.706 128.067C404.684 128.053 404.658 128.035 404.627 128.013C404.329 127.893 404.205 127.7 404.205 127.435C404.205 126.784 404.974 126.422 405.694 126.736C406.215 126.977 406.413 127.266 406.413 127.796C406.413 128.592 405.694 129.194 404.875 129.098C404.428 129.025 403.907 128.76 403.609 128.447C402.89 127.652 403.163 126.398 404.18 125.916C404.949 125.53 405.991 125.627 406.785 126.133C407.679 126.712 408.076 127.242 408.87 128.977C409.143 129.556 409.465 130.182 409.614 130.399C410.359 131.484 411.277 132.014 412.344 132.014C412.939 132.014 413.386 131.894 413.956 131.629C414.378 131.436 414.974 131.05 414.924 131.002C414.899 131.002 414.726 131.05 414.527 131.122C413.336 131.58 412.145 131.532 411.45 131.05C411.028 130.761 410.656 130.134 410.483 129.363C410.467 129.287 410.421 129.017 410.365 128.683C410.332 128.489 410.296 128.274 410.259 128.061C410.011 126.591 409.788 125.916 409.242 125.145C408.696 124.373 407.629 123.699 406.438 123.409C405.694 123.241 404.354 123.192 403.56 123.313ZM400.954 111.816C401.103 111.237 401.624 110.683 402.17 110.538C402.493 110.442 403.212 110.49 403.56 110.683C404.18 110.996 404.652 111.719 404.552 112.225C404.428 112.852 403.361 113.358 402.145 113.358C401.525 113.358 401.302 113.286 401.054 112.973C400.905 112.78 400.855 112.153 400.954 111.816ZM403.361 110.876C403.684 111.068 403.783 111.334 403.585 111.599C403.461 111.791 403.064 111.96 402.766 111.96C402.319 111.96 401.848 111.647 401.848 111.382C401.848 110.827 402.766 110.538 403.361 110.876Z" fill="white" />
        <path d="M163 897C176.255 897 187 886.255 187 873C187 859.745 176.255 849 163 849C149.745 849 139 859.745 139 873C139 886.255 149.745 897 163 897Z" fill="#5F45BA" />
        <path fill-rule="evenodd" clip-rule="evenodd" d="M154.488 862.968C154.039 863.724 153.063 863.972 152.307 863.524C151.552 863.075 151.303 862.099 151.752 861.343C152.201 860.588 153.177 860.339 153.932 860.788C154.688 861.237 154.936 862.213 154.488 862.968Z" fill="white" />
        <path fill-rule="evenodd" clip-rule="evenodd" d="M149.059 862.263C148.742 862.796 148.052 862.972 147.519 862.655C146.985 862.338 146.81 861.649 147.127 861.115C147.443 860.581 148.133 860.406 148.667 860.723C149.2 861.04 149.376 861.729 149.059 862.263Z" fill="white" />
        <path fill-rule="evenodd" clip-rule="evenodd" d="M164.171 885.283C169.999 884.599 174.686 879.834 175.068 873.77C175.497 866.948 170.314 861.068 163.492 860.639C162.676 860.587 161.874 860.619 161.093 860.721C159.453 860.855 158.068 861.48 158.068 861.48C156.949 862.026 156.224 862.943 156.224 864.17C156.224 865.765 157.517 867.058 159.111 867.058C159.378 867.058 160.302 866.766 160.52 866.69C161.334 866.406 162.218 866.276 163.133 866.333C165.49 866.482 167.483 867.838 168.55 869.76C169.148 870.837 169.456 872.091 169.373 873.412C169.142 877.09 165.973 879.884 162.295 879.652C160.122 879.515 158.258 878.353 157.144 876.666C157.144 876.666 157.144 876.667 157.144 876.668C157.144 876.667 157.144 876.667 157.144 876.666C155.811 874.922 156.119 872.134 156.118 872.099C156.063 870.549 154.793 869.308 153.229 869.308C151.893 869.308 150.772 870.215 150.439 871.445C150.373 871.687 150.34 872.395 150.35 872.49C150.075 879.195 155.206 884.923 161.936 885.347C162.695 885.394 163.442 885.369 164.171 885.283Z" fill="white" />
        <path fill-rule="evenodd" clip-rule="evenodd" d="M152.831 867.383C152.249 868.363 150.984 868.685 150.004 868.104C149.025 867.522 148.702 866.256 149.284 865.277C149.866 864.297 151.131 863.975 152.111 864.556C153.09 865.138 153.413 866.404 152.831 867.383Z" fill="white" />
        <circle cx="464.5" cy="559.5" r="63" fill="#FFAD02" stroke="black" stroke-width="3" />
        <path d="M488.535 552.734C489.606 545.572 484.153 541.722 476.697 539.153L479.115 529.451L473.21 527.979L470.855 537.426C469.302 537.039 467.708 536.674 466.123 536.312L468.495 526.804L462.593 525.332L460.172 535.031C458.887 534.738 457.625 534.449 456.401 534.144L456.408 534.114L448.263 532.08L446.692 538.388C446.692 538.388 451.074 539.392 450.981 539.454C453.373 540.052 453.805 541.634 453.733 542.889L450.978 553.942C451.143 553.984 451.356 554.045 451.592 554.139C451.395 554.09 451.185 554.036 450.968 553.984L447.106 569.467C446.813 570.194 446.071 571.284 444.399 570.87C444.458 570.956 440.107 569.799 440.107 569.799L437.175 576.559L444.86 578.475C446.29 578.833 447.691 579.208 449.071 579.561L446.626 589.374L452.525 590.846L454.946 581.137C456.557 581.575 458.122 581.978 459.652 582.359L457.24 592.022L463.146 593.494L465.59 583.699C475.66 585.605 483.233 584.836 486.42 575.728C488.989 568.394 486.293 564.164 480.994 561.405C484.853 560.515 487.759 557.977 488.535 552.734ZM475.041 571.656C473.216 578.989 460.868 575.025 456.865 574.031L460.108 561.03C464.111 562.029 476.949 564.007 475.041 571.656ZM476.868 552.628C475.203 559.299 464.926 555.91 461.592 555.079L464.532 543.288C467.866 544.119 478.602 545.67 476.868 552.628Z" fill="white" />
        <circle cx="98" cy="414.284" r="232.5" transform="rotate(30 98 414.284)" stroke="url(#paint2_linear)" />
        <g opacity="0.4">
            <circle cx="54" cy="729" r="3.5" fill="white" stroke="black" stroke-width="3" />
            <circle cx="333" cy="806" r="3.5" fill="white" stroke="black" stroke-width="3" />
            <circle cx="348" cy="531" r="3.5" fill="white" stroke="black" stroke-width="3" />
            <circle cx="513" cy="337" r="3.5" fill="white" stroke="black" stroke-width="3" />
            <circle cx="333" cy="23" r="3.5" fill="white" stroke="black" stroke-width="3" />
            <circle cx="124" cy="55" r="3.5" fill="white" stroke="black" stroke-width="3" />
            <circle cx="27" cy="156" r="3.5" fill="white" stroke="black" stroke-width="3" />
        </g>
        <rect opacity="0.5" width="37" height="36" rx="18" transform="matrix(1 0 0 -1 775 333)" stroke="white" stroke-width="2" />
        <g filter="url(#filter1_d)">
            <circle r="4.97938" transform="matrix(1 0 0 -1 794.425 314.786)" fill="white" />
        </g>
        <path d="M786.245 314.43H718.312V412.24H601" stroke="white" stroke-width="2" />
        <circle cx="449" cy="773" r="7.5" fill="white" stroke="black" stroke-width="3" />
        <circle cx="107" cy="815" r="7.5" fill="white" stroke="black" stroke-width="3" />
        <circle cx="197" cy="106" r="7.5" fill="white" stroke="black" stroke-width="3" />
        <circle cx="600" cy="412" r="13.5" fill="#1652F0" />
        <circle cx="600" cy="412" r="13.5" fill="url(#paint3_linear)" />
        <circle cx="600" cy="412" r="13.5" stroke="black" stroke-width="3" />
    </g>
    <defs>
        <filter id="filter0_d" x="104" y="610" width="96" height="96" filterUnits="userSpaceOnUse" color-interpolation-filters="sRGB">
            <feFlood flood-opacity="0" result="BackgroundImageFix" />
            <feColorMatrix in="SourceAlpha" type="matrix" values="0 0 0 0 0 0 0 0 0 0 0 0 0 0 0 0 0 0 127 0" />
            <feOffset />
            <feGaussianBlur stdDeviation="8" />
            <feColorMatrix type="matrix" values="0 0 0 0 0 0 0 0 0 0 0 0 0 0 0 0 0 0 0.75 0" />
            <feBlend mode="normal" in2="BackgroundImageFix" result="effect1_dropShadow" />
            <feBlend mode="normal" in="SourceGraphic" in2="effect1_dropShadow" result="shape" />
        </filter>
        <filter id="filter1_d" x="774.446" y="294.807" width="39.9588" height="39.9588" filterUnits="userSpaceOnUse" color-interpolation-filters="sRGB">
            <feFlood flood-opacity="0" result="BackgroundImageFix" />
            <feColorMatrix in="SourceAlpha" type="matrix" values="0 0 0 0 0 0 0 0 0 0 0 0 0 0 0 0 0 0 127 0" />
            <feMorphology radius="6" operator="dilate" in="SourceAlpha" result="effect1_dropShadow" />
            <feOffset />
            <feGaussianBlur stdDeviation="4.5" />
            <feColorMatrix type="matrix" values="0 0 0 0 1 0 0 0 0 1 0 0 0 0 1 0 0 0 0.2 0" />
            <feBlend mode="normal" in2="BackgroundImageFix" result="effect1_dropShadow" />
            <feBlend mode="normal" in="SourceGraphic" in2="effect1_dropShadow" result="shape" />
        </filter>
        <radialGradient id="paint0_radial" cx="0" cy="0" r="1" gradientUnits="userSpaceOnUse" gradientTransform="translate(98 414.756) rotate(90) scale(233)">
            <stop offset="0.421875" stop-color="#1652F0" stop-opacity="0" />
            <stop offset="1" stop-color="#1652F0" stop-opacity="0.6" />
        </radialGradient>
        <linearGradient id="paint1_linear" x1="98" y1="181.756" x2="98" y2="647.756" gradientUnits="userSpaceOnUse">
            <stop stop-color="white" stop-opacity="0.3" />
            <stop offset="1" stop-color="white" stop-opacity="0" />
        </linearGradient>
        <linearGradient id="paint2_linear" x1="98" y1="181.284" x2="98" y2="647.284" gradientUnits="userSpaceOnUse">
            <stop stop-color="white" stop-opacity="0.6" />
            <stop offset="1" stop-color="white" stop-opacity="0" />
        </linearGradient>
        <linearGradient id="paint3_linear" x1="600" y1="400" x2="600" y2="424" gradientUnits="userSpaceOnUse">
            <stop stop-color="white" stop-opacity="0.4" />
            <stop offset="1" stop-color="#1652F0" stop-opacity="0" />
        </linearGradient>
    </defs>
</svg>
