<svg width="120" height="56" viewBox="0 0 120 56" fill="none" xmlns="http://www.w3.org/2000/svg">
<path fill-rule="evenodd" clip-rule="evenodd" d="M23.8359 23.6418L24.5136 20H10.4464L8.58196 30.0165L7 38.0826H21.463L22.1973 34.2452H14.1754L14.9098 30.3417H21.6889L22.4232 26.6993H15.6436L16.2086 23.6418H23.8359Z" fill="white"/>
<path fill-rule="evenodd" clip-rule="evenodd" d="M35.6428 30.3417H40.5579C40.7318 29.166 41.055 27.4118 41.123 25.9835C41.2014 24.3118 40.6283 23.0811 39.3718 22.2757C37.5713 21.1267 34.9187 21.1882 32.9313 21.1051C30.2066 20.9913 26.9643 21.3956 25.248 24.162C24.3626 25.589 23.8645 27.7998 23.6689 29.5284C23.4269 31.6379 22.5021 35.1776 24.1745 36.9101C25.4178 38.201 28.1997 38.6303 29.8171 38.6047C31.4643 38.5779 33.0634 38.4543 34.6825 38.082L38.9194 44H45.5292L35.6428 30.3417ZM34.9084 30.4719C34.368 33.2762 33.6319 35.6356 30.7842 35.6101C27.9252 35.5858 28.874 32.0671 29.1462 30.0172C29.5311 27.1043 30.5091 24.0494 33.4397 24.2928C36.4063 24.5401 35.3591 28.14 34.9084 30.4719Z" fill="white"/>
<path fill-rule="evenodd" clip-rule="evenodd" d="M62.0259 22.0159L60.5006 30.0165L58.9752 38.0826H64.7374L67.8447 22.0159H62.0259Z" fill="white"/>
<path fill-rule="evenodd" clip-rule="evenodd" d="M81.9685 25.2029L82.6463 22.0159H70.0478L66.9971 38.0826H72.8165L74.1154 31.1871H79.8215L80.0474 30.0165L80.3866 28.195H74.7371L75.3021 25.2029H81.9685Z" fill="white"/>
<path fill-rule="evenodd" clip-rule="evenodd" d="M43.4954 22.0159H49.3708L47.1678 33.3992C46.8984 34.7909 48.0331 35.5165 49.0059 35.6127C50.2573 35.7376 51.38 34.838 51.6872 33.3344L54.0035 22.0166H59.8223L57.506 34.0502C56.5142 37.1875 54.2168 38.4196 51.6803 38.7271C50.1075 38.9188 48.4426 38.7565 46.9413 38.4726L41.7442 31.3173L43.4954 22.0159Z" fill="white"/>
<path fill-rule="evenodd" clip-rule="evenodd" d="M95.0182 22.0159H102.419L104.679 26.1791L108.35 22.0159H114L106.6 29.4957L111.458 38.0826H104.227L101.854 33.2036L97.7869 38.0826H89.1434L88.8042 34.5697H82.8155L80.7257 38.0826H76.6581L86.4879 22.0159H93.5495L94.9056 35.0245L99.5942 30.0813L95.0182 22.0159ZM84.7366 31.1223L87.9 25.6583L88.4651 31.1223H84.7366Z" fill="white"/>
</svg>
