<svg width="120" height="56" viewBox="0 0 120 56" fill="none" xmlns="http://www.w3.org/2000/svg">
<path d="M15.3341 18.9481H19.6502C20.9569 18.9481 21.9865 17.9233 21.9865 16.6224V12.3257C21.9865 11.0249 20.9174 10 19.6502 10H15.3341C14.0274 10 12.9979 11.0643 12.9979 12.3257V16.6224C12.9979 17.9233 14.0274 18.9481 15.3341 18.9481Z" fill="white"/>
<path d="M3.61341 28.6058H8.44429C9.90939 28.6058 11.0973 27.4627 11.0973 26.0042V21.1556C11.0973 19.7365 9.94899 18.5539 8.48388 18.5539H3.61341C2.18791 18.5539 1 19.7365 1 21.1556V26.0042C1 27.4232 2.14833 28.6058 3.61341 28.6058Z" fill="white"/>
<path d="M8.00879 38.6577H5.03899C4.16785 38.6577 3.45511 37.9482 3.45511 37.0809V34.1245C3.45511 33.2573 4.16785 32.5477 5.03899 32.5477H8.00879C8.87993 32.5477 9.59268 33.2573 9.59268 34.1245V37.0809C9.59268 37.9482 8.87993 38.6577 8.00879 38.6577Z" fill="white"/>
<path d="M12.4438 48H15.968C17.0371 48 17.8687 47.1722 17.8687 46.1079V42.5996C17.8687 41.5353 16.9975 40.7075 15.968 40.7075H12.4438C11.3747 40.7075 10.5432 41.5747 10.5432 42.5996V46.1079C10.5432 47.1722 11.4143 48 12.4438 48Z" fill="white"/>
<path d="M28.837 20.722H26.4216C25.7088 20.722 25.1149 20.1307 25.1149 19.4212V17.0166C25.1149 16.3071 25.7088 15.7158 26.4216 15.7158H28.837C29.5498 15.7158 30.1437 16.3071 30.1437 17.0166V19.4212C30.1834 20.1307 29.5894 20.722 28.837 20.722Z" fill="white"/>
<path d="M83.5206 20.9585C83.5206 21.7075 82.9267 22.3382 82.1347 22.3382C81.3428 22.3382 80.7092 21.7075 80.7092 20.9585C80.7092 20.2096 81.3428 19.5789 82.1347 19.5789C82.8871 19.5789 83.5206 20.1702 83.5206 20.9585Z" fill="white"/>
<path d="M30.9355 37.2386C30.7375 37.5539 30.3811 37.7116 29.9851 37.7116C29.7871 37.7116 29.51 37.6721 29.3516 37.5539C29.0348 37.3568 28.8368 36.9627 28.8368 36.5685C28.8368 36.3714 28.8765 36.1743 28.9952 36.0166L32.2422 30.9315L28.9952 25.8465C28.8764 25.6888 28.8368 25.4523 28.8368 25.2946C28.8368 24.9004 29.0348 24.5062 29.3912 24.3091C29.5892 24.1908 29.7871 24.1514 29.9851 24.1514C30.3811 24.1514 30.7375 24.3091 30.9751 24.6245L33.6281 28.8029L36.3207 24.6245C36.5187 24.3091 36.9146 24.1514 37.3106 24.1514C37.5086 24.1514 37.7066 24.1909 37.9046 24.3091C38.261 24.5062 38.4589 24.9004 38.4589 25.2946C38.4589 25.4917 38.4193 25.6888 38.3006 25.8465L35.0536 30.9315L38.3006 36.0166C38.4193 36.1743 38.4589 36.3714 38.4589 36.5685C38.4589 36.9627 38.261 37.3963 37.9442 37.5539C37.7462 37.6722 37.5086 37.7116 37.3106 37.7116C36.9146 37.7116 36.5979 37.5539 36.3603 37.2386L33.6677 33.0996L30.9355 37.2386Z" fill="white"/>
<path fill-rule="evenodd" clip-rule="evenodd" d="M47.2102 23.915C45.4284 23.915 43.7653 24.5851 42.5378 25.6888V25.137C42.5378 24.5457 42.023 24.0332 41.3894 24.0332C40.7955 24.0332 40.2411 24.5457 40.2411 25.137V42.0084C40.2411 42.5997 40.8351 43.1121 41.3894 43.1121C41.9834 43.1121 42.5378 42.5997 42.5378 42.0084V36.0561C43.7653 37.1598 45.4284 37.8299 47.2102 37.8299C51.0908 37.8299 54.219 34.7158 54.219 30.8922C54.219 27.0291 51.1304 23.915 47.2102 23.915ZM42.4982 30.8922C42.4982 28.2905 44.5572 26.2407 47.1706 26.2407C49.8237 26.2407 51.8827 28.2905 51.8431 30.8922C51.8431 33.4938 49.7841 35.5436 47.1706 35.5436C44.5572 35.5436 42.4982 33.4938 42.4982 30.8922Z" fill="white"/>
<path d="M74.057 29.6307V36.6079C74.057 37.1992 73.5027 37.7116 72.9087 37.7116C72.2751 37.7116 71.7604 37.1992 71.7604 36.6079V25.1369C71.7604 24.5456 72.3148 24.0332 72.9087 24.0332C73.4631 24.0332 74.0174 24.5062 74.057 25.0975C75.0074 24.3879 76.2349 23.9543 77.5416 23.9543C78.2543 23.9543 78.8087 24.5062 78.8087 25.0975C78.8087 25.7282 78.2543 26.2801 77.5416 26.2801C75.7597 26.3195 74.057 26.9502 74.057 29.6307Z" fill="white"/>
<path d="M80.9865 25.137C80.9865 24.5457 81.5012 24.0333 82.1348 24.0333C82.7288 24.0333 83.2831 24.5457 83.2831 25.137V36.6474C83.2831 37.2387 82.6891 37.7511 82.1348 37.7511C81.5408 37.7511 80.9865 37.2387 80.9865 36.6474V25.137Z" fill="white"/>
<path fill-rule="evenodd" clip-rule="evenodd" d="M96.8652 25.1369C96.8652 24.5456 97.4196 24.0332 98.0135 24.0332C98.5679 24.0332 99.1618 24.5456 99.1618 25.1369V36.6473C99.1618 37.2386 98.6075 37.751 98.0135 37.751C97.38 37.751 96.8652 37.2386 96.8652 36.6473V36.0954C95.5981 37.1992 93.9746 37.8693 92.1927 37.8693C88.2726 37.8693 85.184 34.7552 85.184 30.8921C85.184 27.0684 88.3122 23.9543 92.1927 23.9543C93.9746 23.9543 95.5981 24.6245 96.8652 25.7282V25.1369ZM92.1927 35.5436C94.8062 35.5436 96.8652 33.4938 96.8652 30.8921C96.8652 28.2904 94.8062 26.2406 92.1927 26.2406C89.5793 26.2406 87.5203 28.2904 87.5203 30.8921C87.5203 33.4938 89.5793 35.5436 92.1927 35.5436Z" fill="white"/>
<path d="M107.319 26.2012C109.259 26.2012 110.922 27.8568 110.922 29.7884V36.6473C110.922 37.2386 111.437 37.751 112.071 37.751C112.665 37.751 113.219 37.2386 113.219 36.6473V29.473C113.219 26.3983 110.407 23.9543 107.279 23.9543C105.933 23.9543 104.705 24.3485 103.716 25.0975C103.676 24.5062 103.122 24.0332 102.567 24.0332C101.973 24.0332 101.419 24.5456 101.419 25.1369V36.6473C101.419 37.2386 101.934 37.751 102.567 37.751C103.161 37.751 103.716 37.2386 103.716 36.6473V29.6701C103.716 26.9502 105.458 26.2012 107.319 26.2012Z" fill="white"/>
<path fill-rule="evenodd" clip-rule="evenodd" d="M28.1636 30.4979C28.124 26.9502 24.9563 23.9543 21.1945 23.9543C17.2744 23.9543 14.1858 27.0684 14.1858 30.8921C14.1858 34.7946 17.314 37.8693 21.1945 37.8693C23.0556 37.8693 24.7979 37.1598 26.065 35.8983C26.3026 35.7013 26.461 35.3465 26.461 35.0311C26.461 34.4004 25.9066 33.888 25.3126 33.888C24.9563 33.888 24.6395 34.0851 24.4019 34.361C23.61 35.1888 22.4616 35.583 21.2341 35.583C18.8979 35.583 16.9972 34.0062 16.6012 31.7987H27.1738C27.2134 31.7987 27.2529 31.7987 27.2926 31.7593C27.7677 31.5621 28.1636 31.0892 28.1636 30.4979ZM21.1945 26.2406C23.2932 26.2406 25.0354 27.5809 25.6294 29.473H16.72C17.314 27.5809 19.0563 26.2406 21.1945 26.2406Z" fill="white"/>
<path fill-rule="evenodd" clip-rule="evenodd" d="M62.8509 23.9543C66.5731 23.9543 69.7804 26.9502 69.8201 30.4979C69.8201 31.0892 69.3845 31.6016 68.9093 31.7987H58.2576C58.6536 34.0062 60.5543 35.583 62.8905 35.583C64.118 35.583 65.2664 35.1888 66.0583 34.361C66.2959 34.0851 66.6127 33.888 66.969 33.888C67.563 33.888 68.1174 34.4004 68.1174 35.0311C68.1174 35.3465 67.959 35.7013 67.7214 35.8983C66.4543 37.1598 64.712 37.8693 62.8509 37.8693C58.9704 37.8693 55.8422 34.7946 55.8422 30.8921C55.8422 27.0684 58.9308 23.9543 62.8509 23.9543ZM67.2858 29.473C66.6919 27.5809 64.9496 26.2406 62.8509 26.2406C60.7127 26.2406 58.9704 27.5809 58.3764 29.473H67.2858Z" fill="white"/>
<path d="M115.674 37.7511C115.555 37.7511 115.476 37.6723 115.476 37.554V35.6225H115.04C114.921 35.6225 114.842 35.5436 114.842 35.4254C114.842 35.3071 114.921 35.2283 115.04 35.2283H116.307C116.426 35.2283 116.505 35.3071 116.505 35.4254C116.505 35.5437 116.426 35.6225 116.307 35.6225H115.872V37.554C115.872 37.6723 115.792 37.7511 115.674 37.7511Z" fill="white"/>
<path d="M117.733 37.5934C117.772 37.6723 117.812 37.7511 117.931 37.7511C118.01 37.7511 118.089 37.7117 118.05 37.5934C118.05 37.5934 118.089 37.5934 118.287 36.9627C118.37 36.7429 118.453 36.4847 118.522 36.2684C118.552 36.1744 118.58 36.0883 118.604 36.0167V37.554C118.604 37.6723 118.683 37.7511 118.802 37.7511C118.921 37.7511 119 37.6723 119 37.554V35.5042C119 35.3466 118.881 35.2283 118.723 35.2283C118.604 35.2283 118.485 35.3071 118.446 35.4254L117.891 37.0415L117.337 35.4254C117.297 35.3071 117.179 35.2283 117.06 35.2283C116.901 35.2283 116.783 35.3465 116.783 35.5042V37.554C116.783 37.6723 116.862 37.7511 116.981 37.7511C117.099 37.7511 117.179 37.6723 117.179 37.554V36.0167L117.733 37.5934Z" fill="white"/>
</svg>
