<svg width="179" height="41" viewBox="0 0 179 41" fill="none" xmlns="http://www.w3.org/2000/svg">
<path d="M0 40.3302H154.709V36.2793H0V40.3302Z" fill="#EDEEF0"/>
<path d="M165.432 40.3302H178.717V36.2793H165.432V40.3302Z" fill="#EDEEF0"/>
<path d="M30.1436 30.1436H35.6838V9.29327H30.1436V30.1436ZM29.6074 3.27647C29.6074 2.32332 29.9053 1.54888 30.5606 0.893584C31.1563 0.297861 31.9903 0 32.9435 0C33.9562 0 34.7306 0.297861 35.3263 0.893584C35.9221 1.48931 36.2795 2.26375 36.2795 3.27647C36.2795 4.22963 35.9816 5.00407 35.3263 5.65937C34.7306 6.25509 33.8966 6.55295 32.9435 6.55295C31.9903 6.55295 31.2159 6.25509 30.5606 5.65937C29.9053 5.06364 29.6074 4.22963 29.6074 3.27647Z" fill="#EDEEF0"/>
<path d="M48.4322 9.23409H54.0916V13.4041H48.4322V23.4123C48.4322 24.3059 48.6705 25.0207 49.2067 25.5569C49.7428 26.093 50.3981 26.3909 51.2917 26.3909C52.0662 26.3909 52.9597 26.2718 53.9129 26.0335L54.6278 30.144C53.0193 30.561 51.4704 30.7993 49.9811 30.7993C48.9684 30.7993 48.0153 30.6205 47.1812 30.3227C46.3472 30.0248 45.6324 29.5482 44.9771 28.9525C44.3813 28.3568 43.9048 27.6419 43.5473 26.8079C43.1899 25.9739 43.0707 25.0803 43.0707 24.0676V13.5233H39.2581V9.35323H43.0707V3.21729H48.3727V9.23409H48.4322Z" fill="#EDEEF0"/>
<path d="M57.368 15.0119C57.368 14.1183 57.5467 13.2248 57.9637 12.4503C58.3807 11.6759 58.9169 11.0206 59.5722 10.4249C60.2871 9.88871 61.1211 9.41213 62.0742 9.11427C63.0274 8.81641 64.1593 8.6377 65.2911 8.6377C66.4826 8.6377 67.7336 8.75684 68.9846 8.99513C70.2356 9.23342 71.5462 9.59085 72.8568 10.0674L71.6654 13.9992C70.6526 13.5822 69.6399 13.2843 68.6272 13.046C67.6145 12.8078 66.6613 12.6886 65.7677 12.6886C64.8145 12.6886 64.0401 12.8673 63.4444 13.2843C62.8487 13.7013 62.6104 14.2375 62.6104 14.9524C62.6104 15.6077 62.9082 16.0842 63.4444 16.3821C63.9805 16.68 64.6358 16.9778 65.4698 17.2161C66.3039 17.4544 67.1379 17.6927 68.091 17.8714C69.0442 18.1097 69.9378 18.4671 70.7122 18.9437C71.5462 19.4203 72.2015 20.0756 72.7377 20.85C73.2738 21.684 73.5717 22.7563 73.5717 24.0669C73.5717 25.0201 73.393 25.8541 72.976 26.6881C72.5589 27.4625 72.0228 28.1774 71.3079 28.7731C70.5931 29.3689 69.759 29.7859 68.6867 30.1433C67.674 30.4411 66.5422 30.6199 65.3507 30.6199C62.7891 30.6199 60.0488 30.0837 57.1893 28.9518L58.3212 25.0796C60.7636 26.0924 62.9678 26.569 64.9337 26.569C65.9464 26.569 66.7804 26.3307 67.3762 25.9137C67.9719 25.4967 68.2697 24.9009 68.2697 24.1265C68.2697 23.4712 67.9719 22.9946 67.4357 22.6372C66.8996 22.2797 66.2443 21.9819 65.4103 21.7436C64.5763 21.5053 63.7422 21.267 62.7891 21.0287C61.8359 20.7904 61.0019 20.433 60.1679 19.9564C59.3339 19.4798 58.6786 18.8841 58.1425 18.1097C57.6063 17.3948 57.368 16.3225 57.368 15.0119Z" fill="#EDEEF0"/>
<path d="M84.7118 9.23409H90.3711V13.4041H84.7118V23.4123C84.7118 24.3059 84.9501 25.0207 85.4862 25.5569C86.0224 26.093 86.6777 26.3909 87.5712 26.3909C88.3457 26.3909 89.2393 26.2718 90.1924 26.0335L90.9073 30.144C89.2988 30.561 87.75 30.7993 86.2606 30.7993C85.2479 30.7993 84.2948 30.6205 83.4608 30.3227C82.6267 30.0248 81.9119 29.5482 81.2566 28.9525C80.6013 28.3568 80.1843 27.6419 79.8268 26.8079C79.4694 25.9739 79.3503 25.0803 79.3503 24.0676V13.5233H75.5376V9.35323H79.3503V3.21729H84.6522V9.23409H84.7118Z" fill="#EDEEF0"/>
<path d="M99.1283 23.7695C99.1283 24.6036 99.4857 25.3184 100.141 25.9141C100.856 26.5099 101.69 26.8077 102.703 26.8077C104.132 26.8077 105.264 26.3311 106.158 25.4376C107.051 24.544 107.468 23.3525 107.468 21.9228V20.6718C106.456 20.3739 105.324 20.2548 104.073 20.2548C102.524 20.2548 101.332 20.5526 100.439 21.2079C99.6048 21.8037 99.1283 22.6972 99.1283 23.7695ZM93.9455 24.0674C93.9455 21.8632 94.7795 20.1356 96.4475 18.9442C98.1155 17.7527 100.439 17.157 103.477 17.157C104.132 17.157 104.788 17.2166 105.443 17.2762C106.098 17.3357 106.813 17.4549 107.468 17.574V16.4421C107.468 15.3698 107.111 14.4763 106.337 13.821C105.562 13.1657 104.549 12.8082 103.239 12.8082C101.154 12.8082 98.89 13.2848 96.4475 14.2975L95.0773 10.4849C98.056 9.29348 100.975 8.75732 103.834 8.75732C105.145 8.75732 106.277 8.93604 107.349 9.35305C108.422 9.71048 109.315 10.2466 110.09 10.9615C110.864 11.6168 111.46 12.4508 111.877 13.404C112.294 14.3571 112.532 15.4294 112.532 16.5613V25.0801C112.532 25.5567 112.651 25.9141 112.889 26.1524C113.128 26.4503 113.485 26.5694 113.962 26.5694C114.2 26.5694 114.379 26.5694 114.617 26.5099C114.796 26.5099 114.974 26.4503 115.034 26.4503L115.391 30.4416C114.915 30.5012 114.498 30.6203 114.021 30.6799C113.545 30.7395 113.068 30.7395 112.532 30.7395C111.46 30.7395 110.566 30.5012 109.792 29.9651C109.017 29.4885 108.481 28.7736 108.124 27.88C107.23 28.7736 106.158 29.4885 105.026 29.9651C103.834 30.4416 102.643 30.6799 101.332 30.6799C100.26 30.6799 99.2474 30.5012 98.3538 30.2033C97.4602 29.9055 96.6858 29.4289 96.0305 28.8332C95.3752 28.2375 94.8986 27.5822 94.5412 26.7482C94.1242 25.9141 93.9455 25.0206 93.9455 24.0674Z" fill="#EDEEF0"/>
<path d="M118.489 9.17385H122.778L123.434 12.0333C124.268 10.961 125.221 10.127 126.412 9.53128C127.604 8.93556 128.855 8.6377 130.225 8.6377C131.774 8.6377 133.084 8.99513 134.276 9.65042C135.408 10.3057 136.301 11.2589 136.897 12.4503C137.85 11.1993 138.982 10.2461 140.233 9.59085C141.484 8.93556 142.854 8.6377 144.403 8.6377C145.535 8.6377 146.548 8.81641 147.501 9.17385C148.454 9.53128 149.288 10.0674 149.943 10.7823C150.658 11.4376 151.194 12.2716 151.552 13.2248C151.909 14.1779 152.148 15.1906 152.148 16.3225V30.1433H146.726V17.2161C146.726 16.0247 146.369 15.0715 145.595 14.2971C144.82 13.5822 143.867 13.1652 142.676 13.1652C141.305 13.1652 140.174 13.6418 139.28 14.5949C138.386 15.5481 137.969 16.7395 137.969 18.2884V30.1433H132.548V17.2161C132.548 16.0247 132.191 15.0715 131.476 14.2971C130.761 13.5822 129.808 13.1652 128.617 13.1652C127.187 13.1652 126.055 13.6418 125.161 14.5949C124.268 15.5481 123.851 16.7395 123.851 18.2884V30.1433H118.43V9.17385H118.489Z" fill="#EDEEF0"/>
<path d="M172.76 19.599C172.76 18.6458 172.64 17.7523 172.343 16.9182C172.104 16.0842 171.687 15.3694 171.211 14.8332C170.734 14.2375 170.198 13.8205 169.543 13.4631C168.887 13.1056 168.173 12.9865 167.398 12.9865C165.968 12.9865 164.836 13.463 163.883 14.4758C162.99 15.4289 162.513 16.68 162.513 18.2288V21.0287C162.513 21.8032 162.632 22.518 162.871 23.1138C163.109 23.7691 163.466 24.3052 163.883 24.7818C164.3 25.2584 164.836 25.6158 165.432 25.8541C166.028 26.0924 166.683 26.2115 167.398 26.2115C168.173 26.2115 168.887 26.0328 169.543 25.7349C170.198 25.4371 170.734 24.9605 171.211 24.3648C171.687 23.7691 172.045 23.0542 172.343 22.2797C172.64 21.5053 172.76 20.5522 172.76 19.599ZM157.271 9.17385H161.56L162.215 11.8546C162.99 10.8419 163.883 10.0674 165.015 9.47171C166.147 8.93556 167.398 8.6377 168.768 8.6377C170.138 8.6377 171.389 8.93556 172.581 9.47171C173.713 10.0079 174.725 10.7823 175.559 11.7355C176.394 12.6886 177.049 13.8205 177.525 15.1906C178.002 16.5012 178.24 17.9905 178.24 19.599C178.24 21.2074 178.002 22.6968 177.525 24.0073C177.049 25.3179 176.394 26.5094 175.559 27.4625C174.725 28.4157 173.713 29.1901 172.581 29.7263C171.449 30.2624 170.138 30.5603 168.768 30.5603C167.517 30.5603 166.326 30.322 165.313 29.8454C164.241 29.3688 163.347 28.654 162.632 27.7008V40.3897H157.271V9.17385Z" fill="#EDEEF0"/>
<path d="M18.2291 24.7825C17.3951 25.6165 16.2632 25.974 14.8335 25.974H8.16141V17.336H14.8335C16.2037 17.336 17.3355 17.753 18.2291 18.5274C19.0631 19.3019 19.4801 20.3742 19.4801 21.6252C19.5397 22.9358 19.1227 24.0081 18.2291 24.7825ZM8.16141 5.6598H14.2973C15.5484 5.6598 16.5611 6.01723 17.3951 6.79167C18.2291 7.50654 18.5866 8.51927 18.5866 9.71072C18.5866 10.9022 18.1695 11.8553 17.3951 12.5702C16.5611 13.2851 15.5484 13.6425 14.2973 13.6425H8.16141V5.6598ZM23.7098 17.8721C22.8162 16.6211 21.6247 15.7275 20.1354 15.1914C21.3269 14.6552 22.2205 13.8808 22.9353 12.8085C23.6502 11.7362 24.0076 10.4852 24.0076 9.05542C24.0076 7.92355 23.7693 6.91082 23.3523 6.01724C22.9353 5.06408 22.28 4.28964 21.5056 3.63435C20.7312 2.97905 19.778 2.4429 18.7057 2.08547C17.6334 1.72803 16.4419 1.54932 15.1314 1.54932H0V5.36194C2.32332 5.36194 4.17006 7.26826 4.17006 9.59157C4.17006 11.9149 2.32332 13.8212 0 13.8212V17.2764C2.32332 17.2764 4.17006 19.1827 4.17006 21.506V22.1613C4.17006 24.4846 2.32332 26.391 0 26.391V30.2036H15.7867C17.1568 30.2036 18.3483 30.0249 19.4801 29.6079C20.612 29.2504 21.5652 28.7143 22.3992 27.9994C23.2332 27.2845 23.8885 26.4505 24.3055 25.4974C24.7821 24.5442 25.0204 23.4719 25.0204 22.2805C25.0204 20.5529 24.6033 19.1231 23.7098 17.8721Z" fill="#EDEEF0"/>
</svg>
