<svg width="178" height="48" viewBox="0 0 178 48" fill="none" xmlns="http://www.w3.org/2000/svg">
<path d="M14.4632 29.1363C22.4509 29.1363 28.9263 22.6609 28.9263 14.6731C28.9263 6.68534 22.4509 0.209961 14.4632 0.209961C6.47537 0.209961 0 6.68534 0 14.6731C0 22.6609 6.47537 29.1363 14.4632 29.1363Z" fill="#EDEEF0"/>
<path d="M36.0386 47.9559C42.13 47.9559 47.0681 43.0178 47.0681 36.9264C47.0681 30.835 42.13 25.897 36.0386 25.897C29.9472 25.897 25.0091 30.835 25.0091 36.9264C25.0091 43.0178 29.9472 47.9559 36.0386 47.9559Z" fill="#EDEEF0"/>
<path d="M41.3226 23.2396C46.6025 23.2396 50.8826 18.9595 50.8826 13.6796C50.8826 8.39979 46.6025 4.11963 41.3226 4.11963C36.0428 4.11963 31.7626 8.39979 31.7626 13.6796C31.7626 18.9595 36.0428 23.2396 41.3226 23.2396Z" fill="#666666"/>
<path d="M14.4654 46.2933C18.3663 46.2933 21.5286 43.131 21.5286 39.2302C21.5286 35.3293 18.3663 32.167 14.4654 32.167C10.5646 32.167 7.40228 35.3293 7.40228 39.2302C7.40228 43.131 10.5646 46.2933 14.4654 46.2933Z" fill="#9E9E9E"/>
<path d="M80.0001 24.7346C80.011 26.3079 79.7474 27.8709 79.2212 29.3536C78.7281 30.7523 77.964 32.04 76.9727 33.143C75.9588 34.2509 74.7199 35.1294 73.3391 35.7199C70.1751 36.9882 66.6441 36.9882 63.4801 35.7199C62.0957 35.127 60.8518 34.249 59.8296 33.143C58.83 32.0461 58.0649 30.7566 57.5812 29.3536C56.5667 26.3643 56.5667 23.1239 57.5812 20.1346C58.0623 18.7254 58.8275 17.4298 59.8296 16.3283C60.8523 15.2229 62.096 14.3449 63.4801 13.7515C66.6441 12.4832 70.1751 12.4832 73.3391 13.7515C74.7197 14.3423 75.9585 15.2208 76.9727 16.3283C77.9665 17.4359 78.7307 18.7297 79.2212 20.1346C79.7443 21.6115 80.0078 23.1678 80.0001 24.7346ZM68.4212 32.863C69.4427 32.8838 70.4551 32.6676 71.3791 32.2315C72.2023 31.8292 72.9225 31.2437 73.4843 30.5199C74.0702 29.752 74.4994 28.8765 74.7475 27.943C75.3012 25.8342 75.3012 23.6182 74.7475 21.5094C74.4991 20.576 74.07 19.7005 73.4843 18.9325C72.9225 18.2087 72.2023 17.6232 71.3791 17.2209C69.4945 16.3907 67.3478 16.3907 65.4633 17.2209C64.6398 17.6229 63.9196 18.2085 63.358 18.9325C62.7721 19.7004 62.3429 20.5759 62.0948 21.5094C61.5415 23.6182 61.5415 25.8342 62.0948 27.943C62.3429 28.8765 62.7721 29.752 63.358 30.5199C63.9196 31.2439 64.6398 31.8295 65.4633 32.2315C66.3872 32.6677 67.3996 32.8839 68.4212 32.863ZM83.0506 36.2546V13.2146H87.8927V24.2841L95.8927 13.2146H101.497L93.0212 24.5957L102.084 36.2546H96.0927L87.8927 24.943V36.2546H83.0506ZM114.013 12.7978C114.59 12.7978 115.178 12.8266 115.777 12.8841C116.376 12.9416 116.959 13.0216 117.524 13.1241C118.086 13.2266 118.627 13.3522 119.15 13.5009C119.632 13.6354 120.101 13.813 120.552 14.0315L119.859 17.5725C119.06 17.2793 118.239 17.054 117.402 16.8988C116.524 16.7252 115.632 16.6357 114.737 16.6315C112.108 16.6315 110.096 17.315 108.699 18.682C107.303 20.049 106.605 22.0645 106.606 24.7283C106.606 27.395 107.304 29.4104 108.699 30.7746C110.094 32.1388 112.107 32.8237 114.737 32.8294C115.631 32.8278 116.523 32.7411 117.4 32.5704C118.237 32.4153 119.058 32.1899 119.857 31.8967L120.55 35.4378C120.099 35.6565 119.63 35.8341 119.147 35.9683C118.628 36.1171 118.086 36.2427 117.522 36.3452C116.958 36.4476 116.376 36.5276 115.775 36.5852C115.176 36.6413 114.587 36.6701 114.011 36.6715C112.215 36.7054 110.43 36.4004 108.747 35.7725C107.305 35.2249 105.996 34.3758 104.907 33.282C103.862 32.2086 103.06 30.9226 102.556 29.5115C102.012 27.9791 101.742 26.3627 101.76 24.7367C101.742 23.1107 102.012 21.4943 102.556 19.962C103.062 18.5496 103.866 17.2629 104.914 16.1894C106.002 15.0958 107.311 14.2468 108.754 13.6988C110.435 13.0708 112.219 12.7651 114.013 12.7978ZM145.286 24.7346C145.297 26.3079 145.034 27.8709 144.507 29.3536C144.014 30.7523 143.25 32.04 142.259 33.143C141.245 34.2509 140.006 35.1294 138.625 35.7199C135.461 36.9882 131.93 36.9882 128.766 35.7199C127.382 35.127 126.138 34.249 125.116 33.143C124.116 32.0461 123.351 30.7566 122.867 29.3536C121.853 26.3643 121.853 23.1239 122.867 20.1346C123.349 18.7254 124.114 17.4298 125.116 16.3283C126.139 15.2229 127.382 14.3449 128.766 13.7515C131.93 12.4832 135.461 12.4832 138.625 13.7515C140.006 14.3423 141.245 15.2208 142.259 16.3283C143.253 17.4359 144.017 18.7297 144.507 20.1346C145.031 21.6115 145.294 23.1678 145.286 24.7346ZM133.697 32.863C134.718 32.8838 135.731 32.6676 136.655 32.2315C137.478 31.8292 138.198 31.2437 138.76 30.5199C139.346 29.752 139.775 28.8765 140.023 27.943C140.577 25.8342 140.577 23.6182 140.023 21.5094C139.775 20.576 139.346 19.7005 138.76 18.9325C138.198 18.2087 137.478 17.6232 136.655 17.2209C134.77 16.3907 132.624 16.3907 130.739 17.2209C129.913 17.6269 129.192 18.2176 128.632 18.9473C128.046 19.7151 127.617 20.5907 127.369 21.5241C126.815 23.633 126.815 25.8489 127.369 27.9578C127.618 28.8883 128.047 29.7609 128.632 30.5262C129.193 31.2503 129.914 31.8358 130.737 32.2378C131.662 32.6721 132.675 32.8862 133.697 32.863ZM153.347 36.2546H148.505V13.2146H153.347V36.2546ZM173.067 36.2546L162.316 21.1704V36.2546H157.684V13.2146H162.316L173.076 28.2988V13.2146H177.707V36.2546H173.067Z" fill="#EDEEF0"/>
</svg>
